# This file uses centimeters as units for non-parametric coordinates.

mtllib taperjoint.mtl
g default
v -0.125093 -0.074067 1.010404
v 0.125093 -0.074067 1.010404
v -0.125093 0.074067 1.010404
v 0.125093 0.074067 1.010404
v -0.200000 0.100000 0.000000
v 0.200000 0.100000 0.000000
v -0.200000 -0.100000 0.000000
v 0.200000 -0.100000 0.000000
v -0.106389 0.053195 -0.123077
v 0.106389 0.053195 -0.123077
v 0.106389 -0.053195 -0.123077
v -0.106389 -0.053195 -0.123077
v -0.073093 -0.043278 1.069837
v 0.073093 -0.043278 1.069837
v 0.073093 0.043278 1.069837
v -0.073093 0.043278 1.069837
vt 0.375000 0.000000
vt 0.625000 0.000000
vt 0.375000 0.250000
vt 0.625000 0.250000
vt 0.375000 0.500000
vt 0.625000 0.500000
vt 0.375000 0.750000
vt 0.625000 0.750000
vt 0.375000 1.000000
vt 0.625000 1.000000
vt 0.875000 0.000000
vt 0.875000 0.250000
vt 0.125000 0.000000
vt 0.125000 0.250000
vt 0.375000 0.500000
vt 0.625000 0.500000
vt 0.625000 0.750000
vt 0.375000 0.750000
vt 0.375000 0.000000
vt 0.625000 0.000000
vt 0.625000 0.250000
vt 0.375000 0.250000
vn 0.000000 0.000000 1.000000
vn 0.000000 0.000000 1.000000
vn 0.000000 0.000000 1.000000
vn 0.000000 0.000000 1.000000
vn 0.000000 0.999402 0.034583
vn 0.000000 0.999402 0.034583
vn 0.000000 0.999671 0.025657
vn 0.000000 0.999671 0.025657
vn 0.000000 0.000000 -1.000000
vn 0.000000 0.000000 -1.000000
vn 0.000000 0.000000 -1.000000
vn 0.000000 0.000000 -1.000000
vn 0.000000 -0.999671 0.025657
vn 0.000000 -0.999671 0.025657
vn 0.000000 -0.999402 0.034583
vn 0.000000 -0.999402 0.034583
vn 0.996159 0.000000 0.087566
vn 0.997263 0.000000 0.073933
vn 0.997263 0.000000 0.073933
vn 0.996159 0.000000 0.087566
vn -0.997263 0.000000 0.073933
vn -0.996159 0.000000 0.087566
vn -0.996159 0.000000 0.087566
vn -0.997263 0.000000 0.073933
vn 0.000000 0.934693 -0.355457
vn 0.000000 0.934693 -0.355457
vn 0.000000 0.934693 -0.355457
vn 0.000000 0.934693 -0.355457
vn 0.795938 0.000000 -0.605379
vn 0.795938 0.000000 -0.605379
vn 0.795938 0.000000 -0.605379
vn 0.795938 0.000000 -0.605379
vn 0.000000 -0.934693 -0.355457
vn 0.000000 -0.934693 -0.355457
vn 0.000000 -0.934693 -0.355457
vn 0.000000 -0.934693 -0.355457
vn -0.795938 0.000000 -0.605379
vn -0.795938 0.000000 -0.605379
vn -0.795938 0.000000 -0.605379
vn -0.795938 0.000000 -0.605379
vn 0.000000 -0.887925 0.459988
vn 0.000000 -0.887925 0.459988
vn 0.752600 0.000000 0.658478
vn 0.752600 0.000000 0.658478
vn 0.000000 0.887925 0.459988
vn 0.000000 0.887925 0.459988
vn -0.752600 0.000000 0.658478
vn -0.752600 0.000000 0.658478
s off
g pCube1
usemtl initialShadingGroup
f 13/19/1 14/20/2 15/21/3 16/22/4
s 1
f 3/3/5 4/4/6 6/6/7 5/5/8
s off
f 9/15/9 10/16/10 11/17/11 12/18/12
s 2
f 7/7/13 8/8/14 2/10/15 1/9/16
s 3
f 2/2/17 8/11/18 6/12/19 4/4/20
s 4
f 7/13/21 1/1/22 3/3/23 5/14/24
s off
f 5/5/25 6/6/26 10/16/27 9/15/28
f 6/6/29 8/8/30 11/17/31 10/16/32
f 8/8/33 7/7/34 12/18/35 11/17/36
f 7/7/37 5/5/38 9/15/39 12/18/40
s 2
f 1/1/16 2/2/15 14/20/41 13/19/42
s 3
f 2/2/17 4/4/20 15/21/43 14/20/44
s 1
f 4/4/6 3/3/5 16/22/45 15/21/46
s 4
f 3/3/23 1/1/22 13/19/47 16/22/48
